<svg xmlns="http://www.w3.org/2000/svg" xmlns:xlink="http://www.w3.org/1999/xlink" width="844.8" height="576" viewBox="0 0 633.6 432"><defs><style>*{stroke-linejoin:round;stroke-linecap:butt}</style></defs><g id="figure_1"><path id="patch_1" d="M0 432h633.6V0H0z" style="fill:#fff"/><g id="axes_1"><path id="patch_2" d="M50.87 376.665H622.8V26.88H50.87z" style="fill:#fff"/><path id="FillBetweenPolyCollection_1" d="M97.976 332.5h-8.204l-1.33-2.713-1.004-2.712-.457-2.712.056-2.713.174-2.712-.376-2.712-1.508-2.713-2.659-2.712-3.044-2.712-2.226-2.713-.531-2.712 1.16-2.712 2.096-2.713 2.17-2.712 1.77-2.712 1.328-2.713 1.008-2.712.774-2.712.575-2.713.43-2.712.373-2.712.405-2.713.48-2.712.55-2.712.588-2.713.588-2.712.542-2.712.45-2.713.325-2.712.195-2.712.088-2.713.02-2.712-.004-2.712.003-2.713.033-2.712.067-2.712.09-2.713.094-2.712.085-2.712.075-2.713.073-2.712.08-2.712.09-2.713.095-2.712.083-2.712.06-2.713.034-2.712.012-2.712.004-2.713.004-2.712.01-2.712.012-2.713.01-2.712.004-2.712-.002-2.713-.007-2.712-.009-2.712-.005-2.713.003-2.712.011-2.712.015-2.713.013-2.712.006-2.712-.003-2.713-.01-2.712-.016-2.712-.018-2.713-.017-2.712-.011-2.713-.006-2.712-.003-2.712-.004-2.713-.007-2.712-.01-2.712-.009-2.713v-2.712l.013-2.712.024-2.713.031-2.712.03-2.712.026-2.713.019-2.712.011-2.712.005-2.713v-2.712l-.004-2.712-.005-2.713-.003-2.712v-2.712l.003-2.713.004-2.712.005-2.712.003-2.713-.001-2.712-.005-2.712-.008-2.713-.01-2.712-.01-2.712-.003-2.713h.084l-.004 2.713-.009 2.712-.01 2.712-.008 2.713-.005 2.712v2.712l.002 2.713.005 2.712.005 2.712.003 2.713v2.712l-.004 2.712-.005 2.713-.003 2.712v2.712l.004 2.713.011 2.712.019 2.712.026 2.713.03 2.712.03 2.712.025 2.713.013 2.712v2.712l-.009 2.713-.01 2.712-.007 2.712-.004 2.713-.003 2.712-.006 2.713-.011 2.712-.016 2.712-.018 2.713-.017 2.712-.01 2.712-.002 2.713.006 2.712.012 2.712.015 2.713.011 2.712.003 2.712-.005 2.713-.009 2.712-.007 2.712-.002 2.713.004 2.712.01 2.712.013 2.713.01 2.712.004 2.712.003 2.713.012 2.712.033 2.712.06 2.713.084 2.712.094 2.712.091 2.713.08 2.712.073 2.712.075 2.713.085 2.712.094 2.712.09 2.713.067 2.712.033 2.712.003 2.713-.005 2.712.022 2.712.088 2.713.194 2.712.325 2.712.45 2.713.542 2.712.588 2.712.589 2.713.55 2.712.48 2.712.404 2.713.373 2.712.43 2.712.575 2.713.774 2.712 1.008 2.712 1.328 2.713 1.771 2.712 2.169 2.712 2.097 2.713 1.16 2.712-.532 2.712-2.226 2.713-3.044 2.712-2.66 2.712-1.507 2.713-.376 2.712.175 2.712.055 2.713-.457 2.712-1.004 2.712z" clip-path="url(#p913add1e39)" style="fill:#b7d4ea;fill-opacity:.7"/><path id="FillBetweenPolyCollection_2" d="M158.076 360.765h-31.22l-.9-3.212-.473-3.212-.024-3.212.405-3.212.778-3.212 1.07-3.212 1.258-3.212 1.345-3.212 1.332-3.212 1.238-3.212 1.08-3.212.883-3.212.67-3.211.465-3.212.282-3.212.137-3.212.038-3.212-.01-3.212-.014-3.212.024-3.212.09-3.212.17-3.212.257-3.212.331-3.212.39-3.212.426-3.212.436-3.212.422-3.212.387-3.212.337-3.212.277-3.212.215-3.212.152-3.212.097-3.212.05-3.212.016-3.212-.007-3.212-.018-3.212-.016-3.212-.004-3.212.016-3.212.041-3.212.07-3.212.096-3.212.122-3.212.142-3.212.156-3.212.164-3.212.163-3.212.158-3.212.146-3.212.13-3.212.114-3.212.095-3.212.077-3.212.059-3.212.042-3.212.027-3.212.012-3.212v-3.212l-.016-3.211-.03-3.212-.045-3.212-.062-3.212-.08-3.212-.1-3.212-.118-3.212-.137-3.212-.154-3.212-.168-3.212-.177-3.212-.182-3.212-.18-3.212-.174-3.212-.159-3.212-.138-3.212-.11-3.212-.08-3.212-.042-3.212-.003-3.212.037-3.212.077-3.212.112-3.212.142-3.212.166-3.212.182-3.212.19-3.212.187-3.212.179-3.212.163-3.212.143-3.212.121-3.212.098-3.212.076-3.212.058-3.212.042-3.212.032-3.212.025-3.212.023-3.212h.58l.023 3.212.025 3.212.032 3.212.043 3.212.057 3.212.077 3.212.098 3.212.12 3.212.144 3.212.163 3.212.179 3.212.187 3.212.19 3.212.181 3.212.166 3.212.143 3.212.112 3.212.076 3.212.037 3.212-.003 3.212-.042 3.212-.079 3.212-.11 3.212-.139 3.212-.159 3.212-.173 3.212-.18 3.212-.182 3.212-.178 3.212-.167 3.212-.154 3.212-.137 3.212-.119 3.212-.1 3.212-.08 3.212-.062 3.212-.045 3.212-.03 3.212-.015 3.211v3.212l.012 3.212.027 3.212.042 3.212.059 3.212.076 3.212.095 3.212.114 3.212.13 3.212.147 3.212.157 3.212.164 3.212.163 3.212.156 3.212.143 3.212.122 3.212.096 3.212.07 3.212.04 3.212.016 3.212-.004 3.212-.016 3.212-.017 3.212-.008 3.212.016 3.212.05 3.212.097 3.212.153 3.212.214 3.212.278 3.212.337 3.212.387 3.212.421 3.212.436 3.212.426 3.212.39 3.212.332 3.212.256 3.212.17 3.212.09 3.212.024 3.212-.013 3.212-.01 3.212.038 3.212.137 3.212.281 3.212.465 3.212.67 3.211.884 3.212 1.08 3.212 1.237 3.212 1.333 3.212 1.344 3.212 1.26 3.212 1.068 3.212.779 3.212.405 3.212-.025 3.212-.473 3.212z" clip-path="url(#p913add1e39)" style="fill:#a5cde3;fill-opacity:.7"/><path id="FillBetweenPolyCollection_3" d="M205.951 350.166h-29.786l-1.04-3.105-.716-3.105-.358-3.105.01-3.105.353-3.105.649-3.105.873-3.105 1.014-3.105 1.067-3.105 1.038-3.104.94-3.105.79-3.105.612-3.105.425-3.105.247-3.105.096-3.105-.021-3.105-.097-3.105-.133-3.105-.13-3.105-.097-3.104-.04-3.105.03-3.105.106-3.105.18-3.105.25-3.105.306-3.105.35-3.105.378-3.105.396-3.105.403-3.105.4-3.105.393-3.104.382-3.105.37-3.105.358-3.105.348-3.105.337-3.105.326-3.105.313-3.105.298-3.105.277-3.105.252-3.105.22-3.104.181-3.105.138-3.105.089-3.105.037-3.105-.016-3.105-.068-3.105-.116-3.105-.158-3.105-.19-3.105-.21-3.105-.22-3.105-.216-3.104-.2-3.105-.171-3.105-.136-3.105-.096-3.105-.055-3.105-.015-3.105.017-3.105.043-3.105.058-3.105.063-3.105.059-3.104.046-3.105.028-3.105.007-3.105-.014-3.105-.03-3.105-.044-3.105-.048-3.105-.045-3.105-.034-3.105-.013-3.105.014-3.105.046-3.104.084-3.105.121-3.105.159-3.105.192-3.105.219-3.105.24-3.105.25-3.105.253-3.105.245-3.105.23-3.105.208-3.104.182-3.105.153-3.105.125-3.105.099-3.105.078-3.105.063-3.105.054-3.105.05-3.105.054-3.105h1.897l.053 3.105.051 3.105.054 3.105.063 3.105.078 3.105.1 3.105.124 3.105.153 3.105.181 3.105.208 3.104.23 3.105.246 3.105.253 3.105.25 3.105.24 3.105.22 3.105.191 3.105.159 3.105.121 3.105.083 3.105.047 3.104.014 3.105-.013 3.105-.034 3.105-.045 3.105-.048 3.105-.043 3.105-.031 3.105-.014 3.105.007 3.105.028 3.105.046 3.105.059 3.104.063 3.105.058 3.105.043 3.105.017 3.105-.015 3.105-.055 3.105-.096 3.105-.136 3.105-.172 3.105-.2 3.105-.215 3.104-.22 3.105-.21 3.105-.19 3.105-.158 3.105-.116 3.105-.068 3.105-.016 3.105.037 3.105.089 3.105.138 3.105.181 3.105.22 3.104.251 3.105.278 3.105.297 3.105.314 3.105.326 3.105.337 3.105.348 3.105.358 3.105.37 3.105.382 3.105.393 3.104.4 3.105.403 3.105.396 3.105.379 3.105.35 3.105.305 3.105.249 3.105.181 3.105.107 3.105.03 3.105-.041 3.105-.097 3.104-.13 3.105-.133 3.105-.097 3.105-.02 3.105.095 3.105.247 3.105.425 3.105.612 3.105.79 3.105.94 3.105 1.038 3.104 1.067 3.105 1.014 3.105.873 3.105.649 3.105.354 3.105.009 3.105-.358 3.105-.717 3.105z" clip-path="url(#p913add1e39)" style="fill:#91c3de;fill-opacity:.7"/><path id="FillBetweenPolyCollection_4" d="M249.157 353.699h-19.012l-2.608-3.14-2.328-3.141-1.709-3.14-.857-3.142.057-3.14.851-3.14 1.398-3.141 1.654-3.14 1.648-3.142 1.462-3.14 1.183-3.14.88-3.141.6-3.14.36-3.142.171-3.14.034-3.14-.055-3.141-.098-3.141-.1-3.14-.06-3.141.013-3.14.118-3.141.245-3.141.384-3.14.519-3.141.632-3.14.707-3.141.733-3.141.707-3.14.636-3.141.535-3.14.421-3.141.312-3.141.217-3.14.145-3.141.095-3.14.065-3.141.048-3.141.042-3.14.04-3.141.039-3.14.04-3.141.04-3.141.04-3.14.04-3.141.036-3.14.034-3.141.028-3.141.023-3.14.016-3.141.007-3.14v-3.141l-.007-3.141-.014-3.14-.018-3.141-.02-3.14-.019-3.141-.015-3.141-.01-3.14-.004-3.141.002-3.14.006-3.141.01-3.141.012-3.14.016-3.141.017-3.14.019-3.141.017-3.141.016-3.14.012-3.141.006-3.14v-3.141l-.005-3.141-.011-3.14-.015-3.141-.018-3.14-.02-3.141-.017-3.141-.017-3.14-.013-3.141-.012-3.14-.009-3.141-.007-3.141-.005-3.14v-3.141l.002-3.14.008-3.141.011-3.141.012-3.14.007-3.141-.002-3.14-.02-3.141-.04-3.141-.066-3.14-.085-3.141-.094-3.14-.086-3.141-.06-3.141-.021-3.14h1.245l-.02 3.14-.061 3.14-.086 3.141-.094 3.14-.085 3.141-.065 3.14-.042 3.142-.019 3.14-.002 3.14.008 3.141.011 3.14.011 3.142.008 3.14.003 3.14-.001 3.141-.005 3.14-.007 3.142-.009 3.14-.011 3.14-.014 3.141-.016 3.14-.018 3.142-.02 3.14-.017 3.14-.016 3.141-.01 3.14-.006 3.142v3.14l.007 3.14.011 3.141.016 3.141.018 3.14.018 3.141.017 3.14.016 3.141.013 3.141.01 3.14.006 3.141.001 3.14-.004 3.141-.01 3.141-.015 3.14-.019 3.141-.02 3.14-.018 3.141-.014 3.141-.007 3.14v3.141l.008 3.14.015 3.141.023 3.141.029 3.14.033 3.141.037 3.14.039 3.141.04 3.141.04 3.14.04 3.141.04 3.14.04 3.141.041 3.141.049 3.14.064 3.141.095 3.14.145 3.141.218 3.141.311 3.14.422 3.141.535 3.14.636 3.141.706 3.141.733 3.14.707 3.141.632 3.14.52 3.141.383 3.141.245 3.14.118 3.141.013 3.14-.06 3.141-.1 3.141-.098 3.14-.055 3.141.034 3.14.171 3.141.36 3.141.6 3.14.88 3.141 1.183 3.14 1.462 3.141 1.649 3.141 1.653 3.14 1.398 3.141.851 3.14.057 3.141-.857 3.141-1.709 3.14-2.327 3.141z" clip-path="url(#p913add1e39)" style="fill:#7ab6d9;fill-opacity:.7"/><path id="FillBetweenPolyCollection_5" d="M291.012 360.765h-5.539l-.538-1.463-.54-1.463-.583-1.463-.7-1.464-.92-1.463-1.221-1.463-1.556-1.463-1.833-1.464-1.953-1.463-1.841-1.463-1.472-1.463-.888-1.464-.192-1.463.492-1.463 1.051-1.463 1.417-1.464 1.575-1.463 1.56-1.463 1.43-1.463L280 331.5l1.041-1.464.85-1.463.678-1.463.531-1.463.41-1.464.316-1.463.25-1.463.21-1.463.192-1.464.186-1.463.182-1.463.176-1.463.16-1.464.14-1.463.116-1.463.09-1.463.061-1.463.033-1.464V303.7l-.031-1.463-.065-1.463-.094-1.464-.112-1.463-.119-1.463-.11-1.463-.084-1.464-.047-1.463-.003-1.463.046-1.463.091-1.464.127-1.463.149-1.463.155-1.463.146-1.463.124-1.464.094-1.463.065-1.463.038-1.463.022-1.464.017-1.463.023-1.463.04-1.463.062-1.464.09-1.463.118-1.463.144-1.463.165-1.464.18-1.463.188-1.463.186-1.463.179-1.463.163-1.464.144-1.463.122-1.463.097-1.463.074-1.464.054-1.463.036-1.463.023-1.463.012-1.464.006-1.463.001-1.463-.001-1.463-.003-1.463-.003-1.464-.004-1.463-.003-1.463-.002-1.463-.003-1.464-.001-1.463-.001-1.463v-2.927l.003-1.463.005-1.463.007-1.463.01-1.464.01-1.463.013-1.463h.154l.012 1.463.011 1.463.01 1.464.007 1.463.004 1.463.003 1.463.001 1.464v1.463l-.001 1.463-.002 1.463-.002 1.464-.003 1.463-.003 1.463-.003 1.463-.004 1.464-.002 1.463-.001 1.463v1.463l.006 1.463.013 1.464.022 1.463.037 1.463.053 1.463.075 1.464.097 1.463.121 1.463.144 1.463.164 1.464.178 1.463.187 1.463.187 1.463.18 1.463.166 1.464.144 1.463.118 1.463.09 1.463.062 1.464.04 1.463.023 1.463.016 1.463.023 1.464.038 1.463.064 1.463.095 1.463.123 1.464.146 1.463.156 1.463.149 1.463.126 1.463.091 1.464.046 1.463-.002 1.463-.048 1.463-.084 1.464-.11 1.463-.118 1.463-.113 1.463-.093 1.464-.065 1.463-.032 1.463.001 1.463.033 1.464.061 1.463.09 1.463.115 1.463.14 1.463.161 1.464.175 1.463.183 1.463.186 1.463.192 1.464.21 1.463.25 1.463.315 1.463.41 1.464.532 1.463.679 1.463.849 1.463 1.04 1.464 1.242 1.463 1.43 1.463 1.559 1.463 1.575 1.463 1.416 1.464 1.052 1.463.492 1.463-.192 1.463-.889 1.464-1.471 1.463-1.841 1.463-1.954 1.463-1.832 1.464-1.556 1.463-1.222 1.463-.919 1.463-.7 1.464-.583 1.463-.54 1.463z" clip-path="url(#p913add1e39)" style="fill:#65aad4;fill-opacity:.7"/><path id="FillBetweenPolyCollection_6" d="M352.007 360.765h-30.344l-1.16-3.212-.62-3.212-.055-3.212.463-3.212.887-3.212 1.188-3.212 1.365-3.212 1.437-3.212 1.43-3.212 1.372-3.212 1.287-3.212 1.186-3.212 1.076-3.211.963-3.212.844-3.212.725-3.212.61-3.212.498-3.212.399-3.212.308-3.212.231-3.212.164-3.212.108-3.212.06-3.212.022-3.212-.01-3.212-.037-3.212-.055-3.212-.071-3.212-.083-3.212-.09-3.212-.098-3.212-.103-3.212-.107-3.212-.108-3.212-.106-3.212-.102-3.212-.09-3.212-.076-3.212-.053-3.212-.028-3.212v-3.212l.03-3.212.056-3.212.078-3.212.092-3.212.097-3.212.092-3.212.078-3.212.054-3.212.022-3.212-.014-3.212-.054-3.212-.091-3.212-.123-3.212-.144-3.212-.153-3.212-.148-3.212-.127-3.212-.092-3.212-.048-3.211.003-3.212.054-3.212.102-3.212.14-3.212.17-3.212.184-3.212.19-3.212.182-3.212.17-3.212.149-3.212.128-3.212.106-3.212.086-3.212.069-3.212.054-3.212.043-3.212.033-3.212.026-3.212.02-3.212.017-3.212.014-3.212.01-3.212.01-3.212.006-3.212.005-3.212.002-3.212v-3.212l-.005-3.212-.008-3.212-.013-3.212-.018-3.212-.023-3.212-.025-3.212-.027-3.212-.025-3.212-.02-3.212-.014-3.212-.005-3.212h.412l-.005 3.212-.014 3.212-.02 3.212-.025 3.212-.027 3.212-.025 3.212-.023 3.212-.018 3.212-.013 3.212-.008 3.212-.005 3.212v3.212l.002 3.212.005 3.212.007 3.212.009 3.212.01 3.212.014 3.212.016 3.212.02 3.212.027 3.212.033 3.212.043 3.212.054 3.212.069 3.212.086 3.212.106 3.212.128 3.212.15 3.212.169 3.212.182 3.212.19 3.212.185 3.212.169 3.212.14 3.212.102 3.212.054 3.212.003 3.212-.048 3.211-.092 3.212-.127 3.212-.148 3.212-.153 3.212-.144 3.212-.123 3.212-.091 3.212-.054 3.212-.014 3.212.022 3.212.054 3.212.078 3.212.092 3.212.097 3.212.092 3.212.078 3.212.056 3.212.03 3.212v3.212l-.028 3.212-.053 3.212-.075 3.212-.091 3.212-.102 3.212-.106 3.212-.108 3.212-.107 3.212-.103 3.212-.097 3.212-.091 3.212-.083 3.212-.07 3.212-.056 3.212-.036 3.212-.01 3.212.02 3.212.061 3.212.108 3.212.164 3.212.23 3.212.31 3.212.398 3.212.499 3.212.609 3.212.725 3.212.844 3.212.963 3.212 1.076 3.211 1.186 3.212 1.287 3.212 1.372 3.212 1.43 3.212 1.437 3.212 1.365 3.212 1.188 3.212.887 3.212.463 3.212-.055 3.212-.62 3.212z" clip-path="url(#p913add1e39)" style="fill:#539ecd;fill-opacity:.7"/><path id="FillBetweenPolyCollection_7" d="M395.15 357.232h-19.445l-.216-.785-.095-.785v-.785l.056-.786.072-.785.045-.785-.021-.785-.117-.785-.229-.785-.343-.785-.444-.786-.515-.785-.545-.785-.526-.785-.456-.785-.338-.785-.18-.785.006-.786.203-.785.395-.785.568-.785.71-.785.81-.785.869-.786.884-.785.863-.785.814-.785.745-.785.67-.785.59-.785.519-.786.457-.785.408-.785.37-.785.345-.785.324-.785.31-.786.296-.785.28-.785.262-.785.236-.785.206-.785.167-.785.12-.786.066-.785.003-.785-.069-.785-.149-.785-.238-.785-.336-.785-.44-.786-.552-.785-.664-.785-.778-.785-.885-.785-.984-.785-1.067-.786-1.13-.785-1.167-.785-1.175-.785-1.153-.785-1.096-.785-1.01-.785-.895-.786-.757-.785-.6-.785-.433-.785-.26-.785-.091-.785.072-.785.222-.786.356-.785.475-.785.575-.785.659-.785.726-.785.78-.786.819-.785.847-.785.866-.785.872-.785.87-.785.857-.785.835-.786.802-.785.763-.785.714-.785.66-.785.603-.785.54-.785.48-.786.42-.785.363-.785.31-.785.26-.785.22-.785.182-.786.15-.785.125-.785h1.169l.124.785.15.785.183.786.219.785.261.785.31.785.362.785.42.785.48.786.54.785.603.785.66.785.715.785.762.785.803.785.834.786.857.785.87.785.873.785.865.785.848.785.819.785.78.786.725.785.659.785.575.785.475.785.357.785.222.786.071.785-.09.785-.26.785-.433.785-.6.785-.757.785-.895.786-1.01.785-1.097.785-1.152.785-1.176.785-1.167.785-1.13.785-1.067.786-.984.785-.885.785-.777.785-.665.785-.55.785-.442.786-.335.785-.239.785-.149.785-.069.785.003.785.066.785.12.786.167.785.206.785.237.785.261.785.28.785.297.785.31.786.324.785.344.785.37.785.408.785.458.785.519.786.59.785.669.785.746.785.814.785.863.785.884.785.868.786.81.785.71.785.568.785.396.785.203.785.005.786-.18.785-.337.785-.457.785-.526.785-.545.785-.515.785-.443.786-.344.785-.229.785-.116.785-.021.785.044.785.073.785.056.786v.785l-.096.785z" clip-path="url(#p913add1e39)" style="fill:#4191c6;fill-opacity:.7"/><path id="FillBetweenPolyCollection_8" d="M443.544 357.232h-19.05l-.197-.785-.078-.785.013-.785.066-.786.075-.785.04-.785-.034-.785-.139-.785-.26-.785-.382-.785-.489-.786-.562-.785-.593-.785-.57-.785-.495-.785-.366-.785-.197-.785.003-.786.212-.785.419-.785.602-.785.753-.785.86-.785.923-.786.938-.785.916-.785.862-.785.787-.785.702-.785.615-.785.533-.786.462-.785.403-.785.357-.785.322-.785.296-.785.276-.786.258-.785.243-.785.224-.785.201-.785.174-.785.14-.785.099-.786.05-.785-.008-.785-.076-.785-.152-.785-.24-.785-.335-.785-.442-.786-.555-.785-.67-.785-.79-.785-.9-.785-1.005-.785-1.091-.786-1.157-.785-1.195-.785-1.201-.785-1.174-.785-1.111-.785-1.015-.785-.89-.786-.738-.785-.57-.785-.39-.785-.208-.785-.03-.785.136-.785.29-.786.423-.785.538-.785.634-.785.71-.785.77-.785.813-.786.845-.785.865-.785.873-.785.873-.785.862-.785.843-.785.814-.786.777-.785.733-.785.68-.785.626-.785.566-.785.505-.785.444-.786.386-.785.33-.785.281-.785.236-.785.196-.785.163-.786.135-.785.111-.785h1.096l.112.785.135.785.163.786.196.785.236.785.28.785.331.785.386.785.444.786.505.785.566.785.625.785.681.785.733.785.777.785.814.786.842.785.863.785.872.785.874.785.864.785.845.785.814.786.77.785.71.785.633.785.539.785.423.785.29.786.137.785-.03.785-.21.785-.39.785-.57.785-.738.785-.889.786-1.015.785-1.111.785-1.174.785-1.201.785-1.195.785-1.157.785-1.091.786-1.005.785-.901.785-.789.785-.67.785-.555.785-.442.786-.336.785-.24.785-.152.785-.075.785-.008.785.05.785.099.786.14.785.174.785.201.785.224.785.242.785.26.785.275.786.296.785.322.785.356.785.403.785.462.785.534.786.615.785.702.785.787.785.862.785.915.785.939.785.922.786.86.785.753.785.603.785.418.785.213.785.002.786-.196.785-.366.785-.494.785-.571.785-.593.785-.563.785-.488.786-.382.785-.26.785-.14.785-.034.785.04.785.076.785.066.786.013.785-.078.785z" clip-path="url(#p913add1e39)" style="fill:#3383be;fill-opacity:.7"/><path id="FillBetweenPolyCollection_9" d="M487.522 357.232h-9.821l-.185-1.57.035-1.57.153-1.57.151-1.571.052-1.57-.09-1.57-.215-1.571-.284-1.57-.28-1.57-.213-1.57-.096-1.571.043-1.57.19-1.57.319-1.571.411-1.57.447-1.57.42-1.571.34-1.57.239-1.57.142-1.571.061-1.57-.014-1.57-.122-1.57-.306-1.571-.596-1.57-.99-1.57-1.437-1.571-1.853-1.57-2.132-1.57-2.176-1.571-1.939-1.57-1.432-1.57-.74-1.57.009-1.571.678-1.57 1.164-1.57 1.422-1.571 1.468-1.57 1.37-1.57 1.213-1.571 1.06-1.57.952-1.57.887-1.57.842-1.571.79-1.57.718-1.57.628-1.571.532-1.57.446-1.57.375-1.571.317-1.57.267-1.57.222-1.57.178-1.571.141-1.57.115-1.57.102-1.571.1-1.57.108-1.57.115-1.571.119-1.57.113-1.57.1-1.57.084-1.571.067-1.57.052-1.57.04-1.571.027-1.57.015-1.57v-1.571l-.019-1.57-.034-1.57-.046-1.57-.048-1.571-.039-1.57-.02-1.57.008-1.571.032-1.57.051-1.57.062-1.571.061-1.57.054-1.57.04-1.57.03-1.571.018-1.57.011-1.57.006-1.571.002-1.57.001-1.57v-3.141l-.001-1.57-.002-1.57-.003-1.571-.004-1.57-.004-1.57-.004-1.571-.003-1.57v-1.57h.046l-.001 1.57-.003 1.57-.004 1.57-.004 1.57-.004 1.57-.003 1.571-.002 1.57v1.57l-.001 1.571v3.14l.003 1.57.006 1.571.01 1.57.02 1.57.028 1.571.042 1.57.053 1.57.061 1.571.062 1.57.051 1.57.033 1.57.006 1.571-.019 1.57-.039 1.57-.048 1.571-.045 1.57-.035 1.57-.018 1.571-.001 1.57.015 1.57.028 1.57.04 1.571.051 1.57.067 1.57.083 1.571.1 1.57.114 1.57.119 1.571.115 1.57.108 1.57.1 1.57.102 1.571.115 1.57.141 1.57.178 1.571.222 1.57.267 1.57.317 1.571.375 1.57.446 1.57.532 1.57.628 1.571.718 1.57.79 1.57.842 1.571.887 1.57.952 1.57 1.06 1.571 1.212 1.57 1.371 1.57 1.469 1.57 1.42 1.571 1.165 1.57.678 1.57.009 1.571-.74 1.57-1.432 1.57-1.939 1.571-2.176 1.57-2.132 1.57-1.853 1.57-1.437 1.571-.99 1.57-.596 1.57-.306 1.571-.122 1.57-.014 1.57.061 1.571.142 1.57.24 1.57.34 1.57.419 1.571.447 1.57.411 1.57.32 1.571.189 1.57.043 1.57-.096 1.571-.212 1.57-.28 1.57-.285 1.571-.215 1.57-.09 1.57.052 1.57.15 1.571.154 1.57.035 1.57z" clip-path="url(#p913add1e39)" style="fill:#2474b7;fill-opacity:.7"/><path id="FillBetweenPolyCollection_10" d="M542.886 357.232h-23.365l-.191-.785-.024-.785.103-.785.177-.786.186-.785.133-.785.02-.785-.137-.785-.32-.785-.507-.785-.67-.786-.79-.785-.846-.785-.827-.785-.727-.785-.553-.785-.316-.785-.036-.786.262-.785.55-.785.808-.785 1.013-.785 1.152-.785 1.221-.786 1.222-.785 1.16-.785 1.053-.785.91-.785.75-.785.582-.785.422-.786.272-.785.141-.785.029-.785-.063-.785-.135-.785-.185-.786-.217-.785-.226-.785-.216-.785-.187-.785-.14-.785-.08-.785-.012-.786.056-.785.116-.785.162-.785.186-.785.18-.785.147-.785.082-.786-.01-.785-.123-.785-.248-.785-.376-.785-.498-.785-.604-.786-.687-.785-.742-.785-.767-.785-.76-.785-.729-.785-.672-.785-.6-.786-.52-.785-.43-.785-.345-.785-.26-.785-.181-.785-.105-.785-.03-.786.041-.785.115-.785.192-.785.27-.785.352-.785.435-.786.517-.785.596-.785.668-.785.732-.785.784-.785.82-.785.841-.786.845-.785.833-.785.804-.785.763-.785.709-.785.648-.785.58-.786.512-.785.444-.785.378-.785.318-.785.265-.785.217-.786.178-.785.146-.785h1.354l.145.785.178.785.218.786.264.785.318.785.379.785.443.785.512.785.58.786.648.785.71.785.762.785.805.785.832.785.846.785.84.786.82.785.784.785.732.785.669.785.596.785.517.785.435.786.351.785.27.785.192.785.115.785.042.785-.03.786-.105.785-.18.785-.261.785-.345.785-.431.785-.519.785-.6.786-.673.785-.728.785-.76.785-.767.785-.743.785-.687.785-.604.786-.498.785-.376.785-.248.785-.122.785-.01.785.081.786.147.785.18.785.186.785.162.785.117.785.056.785-.013.786-.08.785-.14.785-.186.785-.216.785-.227.785-.216.785-.186.786-.134.785-.064.785.03.785.14.785.273.785.421.786.583.785.75.785.91.785 1.052.785 1.16.785 1.222.785 1.221.786 1.153.785 1.012.785.808.785.55.785.262.785-.036.786-.315.785-.553.785-.728.785-.827.785-.846.785-.79.785-.67.786-.506.785-.32.785-.137.785.02.785.132.785.187.785.176.786.103.785-.023.785z" clip-path="url(#p913add1e39)" style="fill:#1966ad;fill-opacity:.7"/><path id="FillBetweenPolyCollection_11" d="M588.777 357.232h-17.962l-.168-.75-.06-.749.028-.75.08-.749.097-.75.074-.749.016-.75-.074-.749-.183-.75-.301-.749-.415-.749-.51-.75-.574-.749-.6-.75-.58-.749-.516-.75-.408-.749-.265-.75-.099-.749.08-.75.257-.749.42-.75.559-.749.667-.749.74-.75.777-.749.785-.75.765-.749.727-.75.676-.749.618-.75.56-.749.505-.75.456-.749.412-.75.375-.749.344-.749.317-.75.292-.749.269-.75.247-.749.225-.75.202-.749.178-.75.15-.749.123-.75.088-.749.048-.75.002-.749-.053-.749-.119-.75-.195-.749-.282-.75-.38-.749-.486-.75-.6-.749-.715-.75-.828-.749-.933-.75-1.023-.749-1.092-.75-1.138-.749-1.152-.749-1.136-.75-1.086-.749-1.006-.75-.898-.749-.766-.75-.62-.749-.463-.75-.305-.749-.15-.75-.006-.749.125-.75.241-.749.34-.749.426-.75.495-.749.555-.75.606-.749.65-.75.691-.749.727-.75.759-.749.786-.75.808-.749.822-.75.827-.749.82-.749.805-.75.778-.749.74-.75.693-.749.64-.75.58-.749.52-.75.459-.749.397-.75.34-.749h2.755l.339.75.397.75.458.749.52.75.581.749.64.75.693.749.74.749.778.75.804.749.821.75.827.749.821.75.808.749.787.75.759.749.727.75.69.749.651.75.606.749.555.749.495.75.425.749.34.75.242.749.125.75-.006.749-.15.75-.305.749-.463.75-.62.749-.766.75-.898.749-1.006.749-1.086.75-1.136.749-1.152.75-1.138.749-1.093.75-1.022.749-.933.75-.828.749-.715.75-.6.749-.487.75-.38.749-.282.749-.194.75-.119.749-.053.75.002.749.048.75.088.749.122.75.151.749.178.75.202.749.225.75.247.749.27.75.291.749.317.749.344.75.375.749.412.75.456.749.505.75.56.749.618.75.676.749.727.75.765.749.785.75.778.749.74.749.666.75.559.749.42.75.257.749.08.75-.099.749-.265.75-.408.749-.516.75-.58.749-.6.75-.575.749-.51.749-.414.75-.301.749-.183.75-.074.749.016.75.074.749.097.75.08.749.027.75-.06.749z" clip-path="url(#p913add1e39)" style="fill:#0e58a2;fill-opacity:.7"/><g id="matplotlib.axis_1"><g id="xtick_1"><g id="line2d_1"><defs><path id="mf2c3e4c620" d="M0 0v3.5" style="stroke:#000;stroke-width:.8"/></defs><use xlink:href="#mf2c3e4c620" x="93.874" y="376.665" style="stroke:#000;stroke-width:.8"/></g><g id="text_1" transform="rotate(-30 793.925 101.656)scale(.08 -.08)"><defs><path id="DejaVuSans-61" d="M2194 1759q-697 0-966-159t-269-544q0-306 202-486 202-179 548-179 479 0 768 339t289 901v128zm1147 238V0h-575v531q-197-318-491-470T1556-91q-537 0-855 302-317 302-317 808 0 590 395 890 396 300 1180 300h807v57q0 397-261 614t-733 217q-300 0-585-72-284-72-546-216v532q315 122 612 182 297 61 578 61 760 0 1135-394 375-393 375-1193" transform="scale(.01563)"/><path id="DejaVuSans-67" d="M2906 1791q0 625-258 968-257 344-723 344-462 0-720-344-258-343-258-968 0-622 258-966t720-344q466 0 723 344 258 344 258 966m575-1357q0-893-397-1329-396-436-1215-436-303 0-572 45t-522 139v559q253-137 500-202 247-66 503-66 566 0 847 295t281 892v285q-178-310-456-463T1784 0Q1141 0 747 490 353 981 353 1791q0 812 394 1302 394 491 1037 491 388 0 666-153t456-462v531h575z" transform="scale(.01563)"/><path id="DejaVuSans-72" d="M2631 2963q-97 56-211 82-114 27-251 27-488 0-749-317t-261-911V0H581v3500h578v-544q182 319 472 473 291 155 707 155 59 0 131-8 72-7 159-23z" transform="scale(.01563)"/><path id="DejaVuSans-65" d="M3597 1894v-281H953q38-594 358-905t892-311q331 0 642 81t618 244V178Q3153 47 2828-22t-659-69q-838 0-1327 487-489 488-489 1320 0 859 464 1363 464 505 1252 505 706 0 1117-455 411-454 411-1235m-575 169q-6 471-264 752-258 282-683 282-481 0-770-272t-333-766z" transform="scale(.01563)"/><path id="DejaVuSans-73" d="M2834 3397v-544q-243 125-506 187-262 63-544 63-428 0-642-131t-214-394q0-200 153-314t616-217l197-44q612-131 870-370t258-667q0-488-386-773Q2250-91 1575-91q-281 0-586 55T347 128v594q319-166 628-249 309-82 613-82 406 0 624 139 219 139 219 392 0 234-158 359-157 125-692 241l-200 47q-534 112-772 345-237 233-237 639 0 494 350 762 350 269 994 269 318 0 599-47 282-46 519-140" transform="scale(.01563)"/><path id="DejaVuSans-69" d="M603 3500h575V0H603zm0 1363h575v-729H603z" transform="scale(.01563)"/><path id="DejaVuSans-76" d="M191 3500h609L1894 563l1094 2937h609L2284 0h-781z" transform="scale(.01563)"/></defs><use xlink:href="#DejaVuSans-61"/><use xlink:href="#DejaVuSans-67" transform="translate(61.28)"/><use xlink:href="#DejaVuSans-67" transform="translate(124.756)"/><use xlink:href="#DejaVuSans-72" transform="translate(188.232)"/><use xlink:href="#DejaVuSans-65" transform="translate(227.096)"/><use xlink:href="#DejaVuSans-73" transform="translate(288.62)"/><use xlink:href="#DejaVuSans-73" transform="translate(340.719)"/><use xlink:href="#DejaVuSans-69" transform="translate(392.818)"/><use xlink:href="#DejaVuSans-76" transform="translate(420.602)"/><use xlink:href="#DejaVuSans-65" transform="translate(479.781)"/></g></g><g id="xtick_2"><use xlink:href="#mf2c3e4c620" id="line2d_2" x="142.466" y="376.665" style="stroke:#000;stroke-width:.8"/><g id="text_2" transform="rotate(-30 815.997 2.68)scale(.08 -.08)"><defs><path id="DejaVuSans-64" d="M2906 2969v1894h575V0h-575v525q-181-312-458-464-276-152-664-152-634 0-1033 506-398 507-398 1332t398 1331q399 506 1033 506 388 0 664-152 277-151 458-463M947 1747q0-634 261-995t717-361 718 361q263 361 263 995t-263 995q-262 361-718 361t-717-361-261-995" transform="scale(.01563)"/><path id="DejaVuSans-66" d="M2375 4863v-479h-550q-309 0-430-125-120-125-120-450v-309h947v-447h-947V0H697v3053H147v447h550v244q0 584 272 851 272 268 862 268z" transform="scale(.01563)"/><path id="DejaVuSans-6e" d="M3513 2113V0h-575v2094q0 497-194 743-194 247-581 247-466 0-735-297-269-296-269-809V0H581v3500h578v-544q207 316 486 472 280 156 646 156 603 0 912-373 310-373 310-1098" transform="scale(.01563)"/></defs><use xlink:href="#DejaVuSans-64"/><use xlink:href="#DejaVuSans-65" transform="translate(63.477)"/><use xlink:href="#DejaVuSans-66" transform="translate(125)"/><use xlink:href="#DejaVuSans-65" transform="translate(160.205)"/><use xlink:href="#DejaVuSans-6e" transform="translate(221.729)"/><use xlink:href="#DejaVuSans-73" transform="translate(285.107)"/><use xlink:href="#DejaVuSans-69" transform="translate(337.207)"/><use xlink:href="#DejaVuSans-76" transform="translate(364.99)"/><use xlink:href="#DejaVuSans-65" transform="translate(424.17)"/></g></g><g id="xtick_3"><use xlink:href="#mf2c3e4c620" id="line2d_3" x="191.058" y="376.665" style="stroke:#000;stroke-width:.8"/><g id="text_3" transform="rotate(150 28.347 223.878)scale(-.08 .08)"><defs><path id="DejaVuSans-74" d="M1172 4494v-994h1184v-447H1172V1153q0-428 117-550t477-122h590V0h-590q-666 0-919 248-253 249-253 905v1900H172v447h422v994z" transform="scale(.01563)"/><path id="DejaVuSans-63" d="M3122 3366v-538q-244 135-489 202t-495 67q-560 0-870-355-309-354-309-995t309-996q310-354 870-354 250 0 495 67t489 202V134Q2881 22 2623-34q-257-57-548-57-791 0-1257 497-465 497-465 1341 0 856 470 1346 471 491 1290 491 265 0 518-55 253-54 491-163" transform="scale(.01563)"/><path id="DejaVuSans-6c" d="M603 4863h575V0H603z" transform="scale(.01563)"/></defs><use xlink:href="#DejaVuSans-74"/><use xlink:href="#DejaVuSans-61" transform="translate(39.209)"/><use xlink:href="#DejaVuSans-63" transform="translate(100.488)"/><use xlink:href="#DejaVuSans-74" transform="translate(155.469)"/><use xlink:href="#DejaVuSans-69" transform="translate(194.678)"/><use xlink:href="#DejaVuSans-63" transform="translate(222.46)"/><use xlink:href="#DejaVuSans-61" transform="translate(277.441)"/><use xlink:href="#DejaVuSans-6c" transform="translate(338.72)"/></g></g><g id="xtick_4"><use xlink:href="#mf2c3e4c620" id="line2d_4" x="239.651" y="376.665" style="stroke:#000;stroke-width:.8"/><g id="text_4" transform="rotate(150 53.158 230.25)scale(-.08 .08)"><defs><path id="DejaVuSans-77" d="M269 3500h575l719-2731 715 2731h678l719-2731 716 2731h575L4050 0h-678l-753 2869L1863 0h-679z" transform="scale(.01563)"/><path id="DejaVuSans-6f" d="M1959 3097q-462 0-731-361t-269-989 267-989q268-361 733-361 460 0 728 362 269 363 269 988 0 622-269 986-268 364-728 364m0 487q750 0 1178-488 429-487 429-1349 0-859-429-1349Q2709-91 1959-91q-753 0-1180 489-426 490-426 1349 0 862 426 1349 427 488 1180 488" transform="scale(.01563)"/></defs><use xlink:href="#DejaVuSans-77"/><use xlink:href="#DejaVuSans-61" transform="translate(81.787)"/><use xlink:href="#DejaVuSans-72" transform="translate(143.066)"/><use xlink:href="#DejaVuSans-72" transform="translate(182.43)"/><use xlink:href="#DejaVuSans-69" transform="translate(223.543)"/><use xlink:href="#DejaVuSans-6f" transform="translate(251.326)"/><use xlink:href="#DejaVuSans-72" transform="translate(312.508)"/></g></g><g id="xtick_5"><use xlink:href="#mf2c3e4c620" id="line2d_5" x="288.243" y="376.665" style="stroke:#000;stroke-width:.8"/><g id="text_5" transform="rotate(150 78.323 236.527)scale(-.08 .08)"><use xlink:href="#DejaVuSans-72"/><use xlink:href="#DejaVuSans-61" transform="translate(41.113)"/><use xlink:href="#DejaVuSans-6e" transform="translate(102.393)"/><use xlink:href="#DejaVuSans-67" transform="translate(165.771)"/><use xlink:href="#DejaVuSans-65" transform="translate(229.248)"/><use xlink:href="#DejaVuSans-72" transform="translate(290.771)"/></g></g><g id="xtick_6"><use xlink:href="#mf2c3e4c620" id="line2d_6" x="336.835" y="376.665" style="stroke:#000;stroke-width:.8"/><g id="text_6" transform="rotate(150 100.381 243.637)scale(-.08 .08)"><defs><path id="DejaVuSans-6d" d="M3328 2828q216 388 516 572t706 184q547 0 844-383 297-382 297-1088V0h-578v2094q0 503-179 746-178 244-543 244-447 0-707-297-259-296-259-809V0h-578v2094q0 506-178 748t-550 242q-441 0-701-298-259-298-259-808V0H581v3500h578v-544q197 322 472 475t653 153q382 0 649-194 267-193 395-562" transform="scale(.01563)"/></defs><use xlink:href="#DejaVuSans-72"/><use xlink:href="#DejaVuSans-61" transform="translate(41.113)"/><use xlink:href="#DejaVuSans-6e" transform="translate(102.393)"/><use xlink:href="#DejaVuSans-64" transform="translate(165.771)"/><use xlink:href="#DejaVuSans-6f" transform="translate(229.248)"/><use xlink:href="#DejaVuSans-6d" transform="translate(290.43)"/></g></g><g id="xtick_7"><use xlink:href="#mf2c3e4c620" id="line2d_7" x="385.427" y="376.665" style="stroke:#000;stroke-width:.8"/><g id="text_7" transform="rotate(150 127.816 249.306)scale(-.08 .08)"><defs><path id="DejaVuSans-70" d="M1159 525v-1856H581v4831h578v-531q182 312 458 463 277 152 661 152 638 0 1036-506 399-506 399-1331T3314 415Q2916-91 2278-91q-384 0-661 152-276 152-458 464m1957 1222q0 634-261 995t-717 361q-457 0-718-361t-261-995 261-995 718-361q456 0 717 361t261 995" transform="scale(.01563)"/></defs><use xlink:href="#DejaVuSans-73"/><use xlink:href="#DejaVuSans-6e" transform="translate(52.1)"/><use xlink:href="#DejaVuSans-69" transform="translate(115.479)"/><use xlink:href="#DejaVuSans-70" transform="translate(143.262)"/><use xlink:href="#DejaVuSans-65" transform="translate(206.738)"/><use xlink:href="#DejaVuSans-72" transform="translate(268.262)"/></g></g><g id="xtick_8"><use xlink:href="#mf2c3e4c620" id="line2d_8" x="434.019" y="376.665" style="stroke:#000;stroke-width:.8"/><g id="text_8" transform="rotate(150 133.855 260.679)scale(-.08 .08)"><defs><path id="DejaVuSans-5f" d="M3263-1063v-446H-63v446z" transform="scale(.01563)"/><path id="DejaVuSans-75" d="M544 1381v2119h575V1403q0-497 193-746 194-248 582-248 465 0 735 297 271 297 271 810v1984h575V0h-575v538q-209-319-486-474-276-155-642-155-603 0-916 375-312 375-312 1097m1447 2203" transform="scale(.01563)"/></defs><use xlink:href="#DejaVuSans-73"/><use xlink:href="#DejaVuSans-6e" transform="translate(52.1)"/><use xlink:href="#DejaVuSans-69" transform="translate(115.479)"/><use xlink:href="#DejaVuSans-70" transform="translate(143.262)"/><use xlink:href="#DejaVuSans-65" transform="translate(206.738)"/><use xlink:href="#DejaVuSans-72" transform="translate(268.262)"/><use xlink:href="#DejaVuSans-5f" transform="translate(309.375)"/><use xlink:href="#DejaVuSans-73" transform="translate(359.375)"/><use xlink:href="#DejaVuSans-75" transform="translate(411.475)"/><use xlink:href="#DejaVuSans-72" transform="translate(474.854)"/><use xlink:href="#DejaVuSans-76" transform="translate(515.967)"/><use xlink:href="#DejaVuSans-69" transform="translate(575.146)"/><use xlink:href="#DejaVuSans-76" transform="translate(602.93)"/><use xlink:href="#DejaVuSans-6f" transform="translate(662.11)"/><use xlink:href="#DejaVuSans-72" transform="translate(723.291)"/></g></g><g id="xtick_9"><use xlink:href="#mf2c3e4c620" id="line2d_9" x="482.612" y="376.665" style="stroke:#000;stroke-width:.8"/><g id="text_9" transform="rotate(150 164.35 265.528)scale(-.08 .08)"><defs><path id="DejaVuSans-31" d="M794 531h1031v3560L703 3866v575l1116 225h631V531h1031V0H794z" transform="scale(.01563)"/><path id="DejaVuSans-30" d="M2034 4250q-487 0-733-480-245-479-245-1442 0-959 245-1439 246-480 733-480 491 0 736 480 246 480 246 1439 0 963-246 1442-245 480-736 480m0 500q785 0 1199-621 414-620 414-1801 0-1178-414-1799Q2819-91 2034-91q-784 0-1198 620-414 621-414 1799 0 1181 414 1801 414 621 1198 621" transform="scale(.01563)"/><path id="DejaVuSans-32" d="M1228 531h2203V0H469v531q359 372 979 998 621 627 780 809 303 340 423 576 121 236 121 464 0 372-261 606-261 235-680 235-297 0-627-103-329-103-704-313v638q381 153 712 231 332 78 607 78 725 0 1156-363 431-362 431-968 0-288-108-546-107-257-392-607-78-91-497-524-418-433-1181-1211" transform="scale(.01563)"/></defs><use xlink:href="#DejaVuSans-73"/><use xlink:href="#DejaVuSans-6e" transform="translate(52.1)"/><use xlink:href="#DejaVuSans-69" transform="translate(115.479)"/><use xlink:href="#DejaVuSans-70" transform="translate(143.262)"/><use xlink:href="#DejaVuSans-65" transform="translate(206.738)"/><use xlink:href="#DejaVuSans-72" transform="translate(268.262)"/><use xlink:href="#DejaVuSans-5f" transform="translate(309.375)"/><use xlink:href="#DejaVuSans-76" transform="translate(359.375)"/><use xlink:href="#DejaVuSans-31" transform="translate(418.555)"/><use xlink:href="#DejaVuSans-30" transform="translate(482.178)"/><use xlink:href="#DejaVuSans-32" transform="translate(545.8)"/></g></g><g id="xtick_10"><use xlink:href="#mf2c3e4c620" id="line2d_10" x="531.204" y="376.665" style="stroke:#000;stroke-width:.8"/><g id="text_10" transform="rotate(150 188.646 272.038)scale(-.08 .08)"><defs><path id="DejaVuSans-33" d="M2597 2516q453-97 707-404 255-306 255-756 0-690-475-1069Q2609-91 1734-91q-293 0-604 58T488 141v609q262-153 574-231 313-78 654-78 593 0 904 234t311 681q0 413-289 645-289 233-804 233h-544v519h569q465 0 712 186t247 536q0 359-255 551-254 193-729 193-260 0-557-57-297-56-653-174v562q360 100 674 150t592 50q719 0 1137-327 419-326 419-882 0-388-222-655t-631-370" transform="scale(.01563)"/></defs><use xlink:href="#DejaVuSans-73"/><use xlink:href="#DejaVuSans-6e" transform="translate(52.1)"/><use xlink:href="#DejaVuSans-69" transform="translate(115.479)"/><use xlink:href="#DejaVuSans-70" transform="translate(143.262)"/><use xlink:href="#DejaVuSans-65" transform="translate(206.738)"/><use xlink:href="#DejaVuSans-72" transform="translate(268.262)"/><use xlink:href="#DejaVuSans-5f" transform="translate(309.375)"/><use xlink:href="#DejaVuSans-76" transform="translate(359.375)"/><use xlink:href="#DejaVuSans-31" transform="translate(418.555)"/><use xlink:href="#DejaVuSans-30" transform="translate(482.178)"/><use xlink:href="#DejaVuSans-33" transform="translate(545.8)"/></g></g><g id="xtick_11"><use xlink:href="#mf2c3e4c620" id="line2d_11" x="579.796" y="376.665" style="stroke:#000;stroke-width:.8"/><g id="text_11" transform="rotate(150 217.937 277.21)scale(-.08 .08)"><use xlink:href="#DejaVuSans-6d"/><use xlink:href="#DejaVuSans-6c" transform="translate(97.412)"/><use xlink:href="#DejaVuSans-5f" transform="translate(125.195)"/><use xlink:href="#DejaVuSans-73" transform="translate(175.195)"/><use xlink:href="#DejaVuSans-6e" transform="translate(227.295)"/><use xlink:href="#DejaVuSans-69" transform="translate(290.674)"/><use xlink:href="#DejaVuSans-70" transform="translate(318.457)"/><use xlink:href="#DejaVuSans-65" transform="translate(381.934)"/><use xlink:href="#DejaVuSans-72" transform="translate(443.457)"/></g></g></g><g id="matplotlib.axis_2"><g id="ytick_1"><g id="line2d_12"><defs><path id="m7fb22b22cf" d="M0 0h-3.5" style="stroke:#000;stroke-width:.8"/></defs><use xlink:href="#m7fb22b22cf" x="50.87" y="325.433" style="stroke:#000;stroke-width:.8"/></g><g id="text_12" transform="matrix(.1 0 0 -.1 31.145 329.233)"><use xlink:href="#DejaVuSans-32"/><use xlink:href="#DejaVuSans-30" transform="translate(63.623)"/></g></g><g id="ytick_2"><use xlink:href="#m7fb22b22cf" id="line2d_13" x="50.87" y="254.77" style="stroke:#000;stroke-width:.8"/><g id="text_13" transform="matrix(.1 0 0 -.1 31.145 258.57)"><defs><path id="DejaVuSans-34" d="M2419 4116 825 1625h1594zm-166 550h794V1625h666v-525h-666V0h-628v1100H313v609z" transform="scale(.01563)"/></defs><use xlink:href="#DejaVuSans-34"/><use xlink:href="#DejaVuSans-30" transform="translate(63.623)"/></g></g><g id="ytick_3"><use xlink:href="#m7fb22b22cf" id="line2d_14" x="50.87" y="184.106" style="stroke:#000;stroke-width:.8"/><g id="text_14" transform="matrix(.1 0 0 -.1 31.145 187.906)"><defs><path id="DejaVuSans-36" d="M2113 2584q-425 0-674-291-248-290-248-796 0-503 248-796 249-292 674-292t673 292q248 293 248 796 0 506-248 796-248 291-673 291m1253 1979v-575q-238 112-480 171-242 60-480 60-625 0-955-422-329-422-376-1275 184 272 462 417 279 145 613 145 703 0 1111-427 408-426 408-1160 0-719-425-1154Q2819-91 2113-91q-810 0-1238 620-428 621-428 1799 0 1106 525 1764t1409 658q238 0 480-47t505-140" transform="scale(.01563)"/></defs><use xlink:href="#DejaVuSans-36"/><use xlink:href="#DejaVuSans-30" transform="translate(63.623)"/></g></g><g id="ytick_4"><use xlink:href="#m7fb22b22cf" id="line2d_15" x="50.87" y="113.443" style="stroke:#000;stroke-width:.8"/><g id="text_15" transform="matrix(.1 0 0 -.1 31.145 117.242)"><defs><path id="DejaVuSans-38" d="M2034 2216q-450 0-708-241-257-241-257-662 0-422 257-663 258-241 708-241t709 242q260 243 260 662 0 421-258 662-257 241-711 241m-631 268q-406 100-633 378-226 279-226 679 0 559 398 884 399 325 1092 325 697 0 1094-325t397-884q0-400-227-679-226-278-629-378 456-106 710-416 255-309 255-755 0-679-414-1042Q2806-91 2034-91q-771 0-1186 362-414 363-414 1042 0 446 256 755 257 310 713 416m-231 997q0-362 226-565 227-203 636-203 407 0 636 203 230 203 230 565 0 363-230 566-229 203-636 203-409 0-636-203-226-203-226-566" transform="scale(.01563)"/></defs><use xlink:href="#DejaVuSans-38"/><use xlink:href="#DejaVuSans-30" transform="translate(63.623)"/></g></g><g id="ytick_5"><use xlink:href="#m7fb22b22cf" id="line2d_16" x="50.87" y="42.779" style="stroke:#000;stroke-width:.8"/><g id="text_16" transform="matrix(.1 0 0 -.1 24.782 46.579)"><use xlink:href="#DejaVuSans-31"/><use xlink:href="#DejaVuSans-30" transform="translate(63.623)"/><use xlink:href="#DejaVuSans-30" transform="translate(127.246)"/></g></g><g id="text_17" transform="matrix(0 -.1 -.1 0 18.703 258.103)"><defs><path id="DejaVuSans-47" d="M3809 666v1253H2778v519h1656V434q-365-259-806-392-440-133-940-133-1094 0-1712 639-617 640-617 1780 0 1144 617 1783 618 639 1712 639 456 0 867-113 411-112 758-331v-672q-350 297-744 447t-828 150q-857 0-1287-478-429-478-429-1425 0-944 429-1422 430-478 1287-478 334 0 596 58 263 58 472 180" transform="scale(.01563)"/><path id="DejaVuSans-4c" d="M628 4666h631V531h2272V0H628z" transform="scale(.01563)"/><path id="DejaVuSans-68" d="M3513 2113V0h-575v2094q0 497-194 743-194 247-581 247-466 0-735-297-269-296-269-809V0H581v4863h578V2956q207 316 486 472 280 156 646 156 603 0 912-373 310-373 310-1098" transform="scale(.01563)"/><path id="DejaVuSans-28" d="M1984 4856q-418-718-622-1422-203-703-203-1425 0-721 205-1429t620-1424h-500Q1016-109 783 600T550 2009q0 697 231 1403 232 707 703 1444z" transform="scale(.01563)"/><path id="DejaVuSans-29" d="M513 4856h500q468-737 701-1444 233-706 233-1403 0-700-233-1409T1013-844H513q415 716 620 1424t205 1429q0 722-205 1425-205 704-620 1422" transform="scale(.01563)"/></defs><use xlink:href="#DejaVuSans-47"/><use xlink:href="#DejaVuSans-61" transform="translate(77.49)"/><use xlink:href="#DejaVuSans-6d" transform="translate(138.77)"/><use xlink:href="#DejaVuSans-65" transform="translate(236.182)"/><use xlink:href="#DejaVuSans-4c" transform="translate(329.492)"/><use xlink:href="#DejaVuSans-65" transform="translate(383.455)"/><use xlink:href="#DejaVuSans-6e" transform="translate(444.979)"/><use xlink:href="#DejaVuSans-67" transform="translate(508.357)"/><use xlink:href="#DejaVuSans-74" transform="translate(571.834)"/><use xlink:href="#DejaVuSans-68" transform="translate(611.043)"/><use xlink:href="#DejaVuSans-28" transform="translate(706.209)"/><use xlink:href="#DejaVuSans-72" transform="translate(745.223)"/><use xlink:href="#DejaVuSans-6f" transform="translate(784.086)"/><use xlink:href="#DejaVuSans-75" transform="translate(845.268)"/><use xlink:href="#DejaVuSans-6e" transform="translate(908.646)"/><use xlink:href="#DejaVuSans-64" transform="translate(972.025)"/><use xlink:href="#DejaVuSans-73" transform="translate(1035.502)"/><use xlink:href="#DejaVuSans-29" transform="translate(1087.602)"/></g></g><g id="LineCollection_1"><path d="M85.37 63.978h17.008" clip-path="url(#p913add1e39)" style="fill:none;stroke:#1f77b4;stroke-width:1.5"/><path d="M133.963 42.78h17.007" clip-path="url(#p913add1e39)" style="fill:none;stroke:#1f77b4;stroke-width:1.5"/><path d="M182.555 42.78h17.007" clip-path="url(#p913add1e39)" style="fill:none;stroke:#1f77b4;stroke-width:1.5"/><path d="M231.147 42.78h17.007" clip-path="url(#p913add1e39)" style="fill:none;stroke:#1f77b4;stroke-width:1.5"/><path d="M279.74 215.905h17.006" clip-path="url(#p913add1e39)" style="fill:none;stroke:#1f77b4;stroke-width:1.5"/><path d="M328.331 42.78h17.008" clip-path="url(#p913add1e39)" style="fill:none;stroke:#1f77b4;stroke-width:1.5"/><path d="M376.924 279.502h17.007" clip-path="url(#p913add1e39)" style="fill:none;stroke:#1f77b4;stroke-width:1.5"/><path d="M425.516 279.502h17.007" clip-path="url(#p913add1e39)" style="fill:none;stroke:#1f77b4;stroke-width:1.5"/><path d="M474.108 201.772h17.007" clip-path="url(#p913add1e39)" style="fill:none;stroke:#1f77b4;stroke-width:1.5"/><path d="M522.7 279.502h17.007" clip-path="url(#p913add1e39)" style="fill:none;stroke:#1f77b4;stroke-width:1.5"/><path d="M571.292 283.035H588.3" clip-path="url(#p913add1e39)" style="fill:none;stroke:#1f77b4;stroke-width:1.5"/></g><g id="LineCollection_2"><path d="M85.37 332.5h17.008" clip-path="url(#p913add1e39)" style="fill:none;stroke:#1f77b4;stroke-width:1.5"/><path d="M133.963 360.765h17.007" clip-path="url(#p913add1e39)" style="fill:none;stroke:#1f77b4;stroke-width:1.5"/><path d="M182.555 350.166h17.007" clip-path="url(#p913add1e39)" style="fill:none;stroke:#1f77b4;stroke-width:1.5"/><path d="M231.147 353.699h17.007" clip-path="url(#p913add1e39)" style="fill:none;stroke:#1f77b4;stroke-width:1.5"/><path d="M279.74 360.765h17.006" clip-path="url(#p913add1e39)" style="fill:none;stroke:#1f77b4;stroke-width:1.5"/><path d="M328.331 360.765h17.008" clip-path="url(#p913add1e39)" style="fill:none;stroke:#1f77b4;stroke-width:1.5"/><path d="M376.924 357.232h17.007" clip-path="url(#p913add1e39)" style="fill:none;stroke:#1f77b4;stroke-width:1.5"/><path d="M425.516 357.232h17.007" clip-path="url(#p913add1e39)" style="fill:none;stroke:#1f77b4;stroke-width:1.5"/><path d="M474.108 357.232h17.007" clip-path="url(#p913add1e39)" style="fill:none;stroke:#1f77b4;stroke-width:1.5"/><path d="M522.7 357.232h17.007" clip-path="url(#p913add1e39)" style="fill:none;stroke:#1f77b4;stroke-width:1.5"/><path d="M571.292 357.232H588.3" clip-path="url(#p913add1e39)" style="fill:none;stroke:#1f77b4;stroke-width:1.5"/></g><g id="LineCollection_3"><path d="M93.874 332.5V63.978" clip-path="url(#p913add1e39)" style="fill:none;stroke:#1f77b4;stroke-width:1.5"/><path d="M142.466 360.765V42.78" clip-path="url(#p913add1e39)" style="fill:none;stroke:#1f77b4;stroke-width:1.5"/><path d="M191.058 350.166V42.779" clip-path="url(#p913add1e39)" style="fill:none;stroke:#1f77b4;stroke-width:1.5"/><path d="M239.65 353.699V42.779" clip-path="url(#p913add1e39)" style="fill:none;stroke:#1f77b4;stroke-width:1.5"/><path d="M288.243 360.765v-144.86" clip-path="url(#p913add1e39)" style="fill:none;stroke:#1f77b4;stroke-width:1.5"/><path d="M336.835 360.765V42.78" clip-path="url(#p913add1e39)" style="fill:none;stroke:#1f77b4;stroke-width:1.5"/><path d="M385.427 357.232v-77.73" clip-path="url(#p913add1e39)" style="fill:none;stroke:#1f77b4;stroke-width:1.5"/><path d="M434.02 357.232v-77.73" clip-path="url(#p913add1e39)" style="fill:none;stroke:#1f77b4;stroke-width:1.5"/><path d="M482.612 357.232v-155.46" clip-path="url(#p913add1e39)" style="fill:none;stroke:#1f77b4;stroke-width:1.5"/><path d="M531.204 357.232v-77.73" clip-path="url(#p913add1e39)" style="fill:none;stroke:#1f77b4;stroke-width:1.5"/><path d="M579.796 357.232v-74.197" clip-path="url(#p913add1e39)" style="fill:none;stroke:#1f77b4;stroke-width:1.5"/></g><path id="line2d_17" d="M84.156 304.234h19.437" clip-path="url(#p913add1e39)" style="fill:none;stroke:#fff;stroke-width:2"/><path id="line2d_18" d="M89.015 304.234h9.718" clip-path="url(#p913add1e39)" style="fill:none;stroke:#fff;stroke-opacity:.7"/><path id="line2d_19" d="M89.015 286.569h9.718" clip-path="url(#p913add1e39)" style="fill:none;stroke:#fff;stroke-opacity:.7"/><path id="line2d_20" d="M132.748 336.033h19.437" clip-path="url(#p913add1e39)" style="fill:none;stroke:#fff;stroke-width:2"/><path id="line2d_21" d="M137.607 357.232h9.718" clip-path="url(#p913add1e39)" style="fill:none;stroke:#fff;stroke-opacity:.7"/><path id="line2d_22" d="M137.607 290.102h9.718" clip-path="url(#p913add1e39)" style="fill:none;stroke:#fff;stroke-opacity:.7"/><path id="line2d_23" d="M181.34 286.569h19.437" clip-path="url(#p913add1e39)" style="fill:none;stroke:#fff;stroke-width:2"/><path id="line2d_24" d="M186.2 343.1h9.718" clip-path="url(#p913add1e39)" style="fill:none;stroke:#fff;stroke-opacity:.7"/><path id="line2d_25" d="M186.2 208.839h9.718" clip-path="url(#p913add1e39)" style="fill:none;stroke:#fff;stroke-opacity:.7"/><path id="line2d_26" d="M229.932 328.967h19.437" clip-path="url(#p913add1e39)" style="fill:none;stroke:#fff;stroke-width:2"/><path id="line2d_27" d="M234.791 343.1h9.719" clip-path="url(#p913add1e39)" style="fill:none;stroke:#fff;stroke-opacity:.7"/><path id="line2d_28" d="M234.791 293.635h9.719" clip-path="url(#p913add1e39)" style="fill:none;stroke:#fff;stroke-opacity:.7"/><path id="line2d_29" d="M278.524 336.033h19.437" clip-path="url(#p913add1e39)" style="fill:none;stroke:#fff;stroke-width:2"/><path id="line2d_30" d="M283.384 343.1h9.718" clip-path="url(#p913add1e39)" style="fill:none;stroke:#fff;stroke-opacity:.7"/><path id="line2d_31" d="M283.384 311.3h9.718" clip-path="url(#p913add1e39)" style="fill:none;stroke:#fff;stroke-opacity:.7"/><path id="line2d_32" d="M327.117 350.166h19.436" clip-path="url(#p913add1e39)" style="fill:none;stroke:#fff;stroke-width:2"/><path id="line2d_33" d="M331.976 357.232h9.718" clip-path="url(#p913add1e39)" style="fill:none;stroke:#fff;stroke-opacity:.7"/><path id="line2d_34" d="M331.976 325.433h9.718" clip-path="url(#p913add1e39)" style="fill:none;stroke:#fff;stroke-opacity:.7"/><path id="line2d_35" d="M375.709 320.134h19.437" clip-path="url(#p913add1e39)" style="fill:none;stroke:#fff;stroke-width:2"/><path id="line2d_36" d="M380.568 343.1h9.718" clip-path="url(#p913add1e39)" style="fill:none;stroke:#fff;stroke-opacity:.7"/><path id="line2d_37" d="M380.568 304.234h9.718" clip-path="url(#p913add1e39)" style="fill:none;stroke:#fff;stroke-opacity:.7"/><path id="line2d_38" d="M424.3 314.834h19.438" clip-path="url(#p913add1e39)" style="fill:none;stroke:#fff;stroke-width:2"/><path id="line2d_39" d="M429.16 343.1h9.719" clip-path="url(#p913add1e39)" style="fill:none;stroke:#fff;stroke-opacity:.7"/><path id="line2d_40" d="M429.16 304.234h9.719" clip-path="url(#p913add1e39)" style="fill:none;stroke:#fff;stroke-opacity:.7"/><path id="line2d_41" d="M472.893 307.768h19.437" clip-path="url(#p913add1e39)" style="fill:none;stroke:#fff;stroke-width:2"/><path id="line2d_42" d="M477.752 336.033h9.719" clip-path="url(#p913add1e39)" style="fill:none;stroke:#fff;stroke-opacity:.7"/><path id="line2d_43" d="M477.752 300.701h9.719" clip-path="url(#p913add1e39)" style="fill:none;stroke:#fff;stroke-opacity:.7"/><path id="line2d_44" d="M521.485 325.433h19.437" clip-path="url(#p913add1e39)" style="fill:none;stroke:#fff;stroke-width:2"/><path id="line2d_45" d="M526.345 343.1h9.718" clip-path="url(#p913add1e39)" style="fill:none;stroke:#fff;stroke-opacity:.7"/><path id="line2d_46" d="M526.345 304.234h9.718" clip-path="url(#p913add1e39)" style="fill:none;stroke:#fff;stroke-opacity:.7"/><path id="line2d_47" d="M570.077 311.3h19.437" clip-path="url(#p913add1e39)" style="fill:none;stroke:#fff;stroke-width:2"/><path id="line2d_48" d="M574.937 343.1h9.718" clip-path="url(#p913add1e39)" style="fill:none;stroke:#fff;stroke-opacity:.7"/><path id="line2d_49" d="M574.937 300.701h9.718" clip-path="url(#p913add1e39)" style="fill:none;stroke:#fff;stroke-opacity:.7"/><path id="patch_3" d="M50.87 376.665V26.88" style="fill:none;stroke:#000;stroke-width:.8;stroke-linejoin:miter;stroke-linecap:square"/><path id="patch_4" d="M50.87 376.665H622.8" style="fill:none;stroke:#000;stroke-width:.8;stroke-linejoin:miter;stroke-linecap:square"/><g id="text_18" transform="matrix(.12 0 0 -.12 259.46 20.88)"><defs><path id="DejaVuSans-44" d="M1259 4147V519h763q966 0 1414 437 448 438 448 1382 0 937-448 1373t-1414 436zm-631 519h1297q1356 0 1990-564 635-564 635-1764 0-1207-638-1773Q3275 0 1925 0H628z" transform="scale(.01563)"/><path id="DejaVuSans-62" d="M3116 1747q0 634-261 995t-717 361q-457 0-718-361t-261-995 261-995 718-361q456 0 717 361t261 995M1159 2969q182 312 458 463 277 152 661 152 638 0 1036-506 399-506 399-1331T3314 415Q2916-91 2278-91q-384 0-661 152-276 152-458 464V0H581v4863h578z" transform="scale(.01563)"/></defs><use xlink:href="#DejaVuSans-47"/><use xlink:href="#DejaVuSans-61" transform="translate(77.49)"/><use xlink:href="#DejaVuSans-6d" transform="translate(138.77)"/><use xlink:href="#DejaVuSans-65" transform="translate(236.182)"/><use xlink:href="#DejaVuSans-4c" transform="translate(329.492)"/><use xlink:href="#DejaVuSans-65" transform="translate(383.455)"/><use xlink:href="#DejaVuSans-6e" transform="translate(444.979)"/><use xlink:href="#DejaVuSans-67" transform="translate(508.357)"/><use xlink:href="#DejaVuSans-74" transform="translate(571.834)"/><use xlink:href="#DejaVuSans-68" transform="translate(611.043)"/><use xlink:href="#DejaVuSans-44" transform="translate(706.209)"/><use xlink:href="#DejaVuSans-69" transform="translate(783.21)"/><use xlink:href="#DejaVuSans-73" transform="translate(810.994)"/><use xlink:href="#DejaVuSans-74" transform="translate(863.094)"/><use xlink:href="#DejaVuSans-72" transform="translate(902.303)"/><use xlink:href="#DejaVuSans-69" transform="translate(943.416)"/><use xlink:href="#DejaVuSans-62" transform="translate(971.2)"/><use xlink:href="#DejaVuSans-75" transform="translate(1034.676)"/><use xlink:href="#DejaVuSans-74" transform="translate(1098.055)"/><use xlink:href="#DejaVuSans-69" transform="translate(1137.264)"/><use xlink:href="#DejaVuSans-6f" transform="translate(1165.047)"/><use xlink:href="#DejaVuSans-6e" transform="translate(1226.229)"/></g></g></g><defs><clipPath id="p913add1e39"><path d="M50.87 26.88H622.8v349.785H50.87z"/></clipPath></defs></svg>